<svg width="64" height="64" viewBox="0 0 64 64" fill="none" xmlns="http://www.w3.org/2000/svg">
<rect width="64" height="64" rx="32" fill="#3C68FF" fill-opacity="0.1"/>
<path d="M41.1744 29.6394C40.8209 29.27 40.4553 28.8894 40.3175 28.5547C40.19 28.2481 40.1825 27.74 40.175 27.2478C40.1609 26.3328 40.1459 25.2959 39.425 24.575C38.7041 23.8541 37.6672 23.8391 36.7522 23.825C36.26 23.8175 35.7519 23.81 35.4453 23.6825C35.1116 23.5447 34.73 23.1791 34.3606 22.8256C33.7137 22.2041 32.9788 21.5 32 21.5C31.0212 21.5 30.2872 22.2041 29.6394 22.8256C29.27 23.1791 28.8894 23.5447 28.5547 23.6825C28.25 23.81 27.74 23.8175 27.2478 23.825C26.3328 23.8391 25.2959 23.8541 24.575 24.575C23.8541 25.2959 23.8438 26.3328 23.825 27.2478C23.8175 27.74 23.81 28.2481 23.6825 28.5547C23.5447 28.8884 23.1791 29.27 22.8256 29.6394C22.2041 30.2863 21.5 31.0212 21.5 32C21.5 32.9788 22.2041 33.7128 22.8256 34.3606C23.1791 34.73 23.5447 35.1106 23.6825 35.4453C23.81 35.7519 23.8175 36.26 23.825 36.7522C23.8391 37.6672 23.8541 38.7041 24.575 39.425C25.2959 40.1459 26.3328 40.1609 27.2478 40.175C27.74 40.1825 28.2481 40.19 28.5547 40.3175C28.8884 40.4553 29.27 40.8209 29.6394 41.1744C30.2863 41.7959 31.0212 42.5 32 42.5C32.9788 42.5 33.7128 41.7959 34.3606 41.1744C34.73 40.8209 35.1106 40.4553 35.4453 40.3175C35.7519 40.19 36.26 40.1825 36.7522 40.175C37.6672 40.1609 38.7041 40.1459 39.425 39.425C40.1459 38.7041 40.1609 37.6672 40.175 36.7522C40.1825 36.26 40.19 35.7519 40.3175 35.4453C40.4553 35.1116 40.8209 34.73 41.1744 34.3606C41.7959 33.7137 42.5 32.9788 42.5 32C42.5 31.0212 41.7959 30.2872 41.1744 29.6394ZM36.2806 30.2806L31.0306 35.5306C30.961 35.6004 30.8783 35.6557 30.7872 35.6934C30.6962 35.7312 30.5986 35.7506 30.5 35.7506C30.4014 35.7506 30.3038 35.7312 30.2128 35.6934C30.1217 35.6557 30.039 35.6004 29.9694 35.5306L27.7194 33.2806C27.5786 33.1399 27.4996 32.949 27.4996 32.75C27.4996 32.551 27.5786 32.3601 27.7194 32.2194C27.8601 32.0786 28.051 31.9996 28.25 31.9996C28.449 31.9996 28.6399 32.0786 28.7806 32.2194L30.5 33.9397L35.2194 29.2194C35.2891 29.1497 35.3718 29.0944 35.4628 29.0567C35.5539 29.019 35.6515 28.9996 35.75 28.9996C35.8485 28.9996 35.9461 29.019 36.0372 29.0567C36.1282 29.0944 36.2109 29.1497 36.2806 29.2194C36.3503 29.2891 36.4056 29.3718 36.4433 29.4628C36.481 29.5539 36.5004 29.6515 36.5004 29.75C36.5004 29.8485 36.481 29.9461 36.4433 30.0372C36.4056 30.1282 36.3503 30.2109 36.2806 30.2806Z" fill="#3C68FF"/>
</svg>
