<svg width="64" height="64" viewBox="0 0 64 64" fill="none" xmlns="http://www.w3.org/2000/svg">
<rect width="64" height="64" rx="32" fill="#3C68FF" fill-opacity="0.1"/>
<path d="M41.75 39.5C41.75 39.6989 41.671 39.8897 41.5303 40.0303C41.3897 40.171 41.1989 40.25 41 40.25H23C22.8011 40.25 22.6103 40.171 22.4697 40.0303C22.329 39.8897 22.25 39.6989 22.25 39.5C22.25 39.3011 22.329 39.1103 22.4697 38.9697C22.6103 38.829 22.8011 38.75 23 38.75H23.75V32.75C23.75 32.5511 23.829 32.3603 23.9697 32.2197C24.1103 32.079 24.3011 32 24.5 32H26.75C26.9489 32 27.1397 32.079 27.2803 32.2197C27.421 32.3603 27.5 32.5511 27.5 32.75V38.75H29V28.25C29 28.0511 29.079 27.8603 29.2197 27.7197C29.3603 27.579 29.5511 27.5 29.75 27.5H32.75C32.9489 27.5 33.1397 27.579 33.2803 27.7197C33.421 27.8603 33.5 28.0511 33.5 28.25V38.75H35V23.75C35 23.5511 35.079 23.3603 35.2197 23.2197C35.3603 23.079 35.5511 23 35.75 23H39.5C39.6989 23 39.8897 23.079 40.0303 23.2197C40.171 23.3603 40.25 23.5511 40.25 23.75V38.75H41C41.1989 38.75 41.3897 38.829 41.5303 38.9697C41.671 39.1103 41.75 39.3011 41.75 39.5Z" fill="#3C68FF"/>
</svg>
