<svg width="64" height="64" viewBox="0 0 64 64" fill="none" xmlns="http://www.w3.org/2000/svg">
<rect width="64" height="64" rx="32" fill="#3C68FF" fill-opacity="0.1"/>
<path d="M32.0084 25.3794C32.0505 24.7974 32.2427 24.2362 32.5663 23.7506C32.89 23.265 33.334 22.8716 33.8551 22.6089C34.3761 22.3462 34.9564 22.223 35.5393 22.2515C36.1221 22.2799 36.6876 22.459 37.1806 22.7713C37.237 22.8081 37.2824 22.8595 37.312 22.92C37.3417 22.9805 37.3545 23.0478 37.3491 23.115C37.3437 23.1821 37.3204 23.2466 37.2815 23.3016C37.2426 23.3566 37.1896 23.4001 37.1281 23.4275C36.2711 23.8131 35.5437 24.4379 35.0331 25.2268C34.5226 26.0157 34.2507 26.9353 34.25 27.875C34.25 27.9847 34.25 28.0944 34.2612 28.2022C34.2664 28.2703 34.2529 28.3386 34.2221 28.3996C34.1913 28.4606 34.1444 28.512 34.0865 28.5483C34.0285 28.5846 33.9618 28.6044 33.8935 28.6055C33.8252 28.6066 33.7578 28.5891 33.6987 28.5547C33.1463 28.2387 32.6944 27.7729 32.3953 27.211C32.0962 26.6492 31.9621 26.0142 32.0084 25.3794ZM42.5 35.0572C42.5013 35.4858 42.3826 35.9061 42.1573 36.2707C41.9319 36.6352 41.609 36.9293 41.225 37.1197L41.1838 37.1385L37.5434 38.6891C37.5075 38.7049 37.4701 38.7175 37.4319 38.7266L31.4319 40.2266C31.3724 40.2419 31.3114 40.2497 31.25 40.25H21.5C21.1022 40.25 20.7206 40.092 20.4393 39.8107C20.158 39.5294 20 39.1478 20 38.75V35C20 34.6022 20.158 34.2207 20.4393 33.9394C20.7206 33.6581 21.1022 33.5 21.5 33.5H24.1897L26.3103 31.3785C26.5884 31.0991 26.919 30.8777 27.2832 30.7269C27.6473 30.5762 28.0377 30.499 28.4319 30.5H33.125C33.5212 30.5 33.9122 30.5896 34.2688 30.7622C34.6254 30.9348 34.9383 31.1858 35.1841 31.4965C35.4298 31.8072 35.6021 32.1695 35.6879 32.5563C35.7738 32.943 35.7709 33.3442 35.6797 33.7297L39.6022 32.8278C39.9437 32.7374 40.3013 32.7266 40.6477 32.7962C40.994 32.8659 41.3197 33.0141 41.5996 33.2295C41.8796 33.4449 42.1064 33.7217 42.2625 34.0386C42.4186 34.3555 42.4999 34.704 42.5 35.0572ZM41 35.0572C40.9999 34.9332 40.9712 34.8109 40.9162 34.6998C40.8611 34.5886 40.7812 34.4917 40.6827 34.4164C40.5841 34.3412 40.4695 34.2896 40.3478 34.2658C40.2261 34.242 40.1006 34.2465 39.9809 34.2791L39.9519 34.2866L33.6706 35.7313C33.6155 35.7436 33.5593 35.7499 33.5028 35.75H30.5C30.3011 35.75 30.1103 35.671 29.9697 35.5303C29.829 35.3897 29.75 35.1989 29.75 35C29.75 34.8011 29.829 34.6103 29.9697 34.4697C30.1103 34.329 30.3011 34.25 30.5 34.25H33.125C33.4234 34.25 33.7095 34.1315 33.9205 33.9205C34.1315 33.7095 34.25 33.4234 34.25 33.125C34.25 32.8266 34.1315 32.5405 33.9205 32.3295C33.7095 32.1185 33.4234 32 33.125 32H28.4319C28.2348 31.9994 28.0396 32.0379 27.8576 32.1134C27.6756 32.1889 27.5103 32.2998 27.3716 32.4397L25.25 34.5603V38.75H31.1562L37.0091 37.2866L40.5716 35.7697C40.7012 35.7014 40.8097 35.5989 40.8852 35.4733C40.9608 35.3477 41.0005 35.2038 41 35.0572ZM35.75 27.875C35.75 28.5425 35.9479 29.1951 36.3188 29.7501C36.6896 30.3051 37.2167 30.7377 37.8334 30.9931C38.4501 31.2486 39.1287 31.3154 39.7834 31.1852C40.4381 31.0549 41.0395 30.7335 41.5115 30.2615C41.9835 29.7895 42.3049 29.1881 42.4352 28.5334C42.5654 27.8788 42.4985 27.2002 42.2431 26.5835C41.9876 25.9668 41.5551 25.4397 41 25.0688C40.445 24.698 39.7925 24.5 39.125 24.5C38.2299 24.5 37.3715 24.8556 36.7385 25.4885C36.1056 26.1215 35.75 26.9799 35.75 27.875Z" fill="#3C68FF"/>
</svg>
