<svg width="24" height="25" viewBox="0 0 24 25" fill="none" xmlns="http://www.w3.org/2000/svg">
<path fill-rule="evenodd" clip-rule="evenodd" d="M17.3333 0.32373H6.66667C2.98477 0.32373 0 3.3085 0 6.9904V17.6571C0 21.3389 2.98477 24.3237 6.66667 24.3237H17.3333C21.0152 24.3237 24 21.3389 24 17.6571V6.9904C24 3.3085 21.0152 0.32373 17.3333 0.32373ZM21.6667 17.6571C21.6593 20.0472 19.7235 21.9831 17.3333 21.9904H6.66667C4.27647 21.9831 2.34065 20.0472 2.33333 17.6571V6.9904C2.34065 4.6002 4.27647 2.66438 6.66667 2.65706H17.3333C19.7235 2.66438 21.6593 4.6002 21.6667 6.9904V17.6571ZM18.3333 7.32373C19.0697 7.32373 19.6667 6.72677 19.6667 5.9904C19.6667 5.25402 19.0697 4.65706 18.3333 4.65706C17.5969 4.65706 17 5.25402 17 5.9904C17 6.72677 17.5969 7.32373 18.3333 7.32373ZM12 6.32373C8.68629 6.32373 6 9.01002 6 12.3237C6 15.6375 8.68629 18.3237 12 18.3237C15.3137 18.3237 18 15.6375 18 12.3237C18.0036 10.7313 17.3725 9.20316 16.2465 8.07717C15.1205 6.95118 13.5924 6.32018 12 6.32373ZM8.33333 12.3237C8.33333 14.3488 9.97493 15.9904 12 15.9904C14.0251 15.9904 15.6667 14.3488 15.6667 12.3237C15.6667 10.2987 14.0251 8.65706 12 8.65706C9.97493 8.65706 8.33333 10.2987 8.33333 12.3237Z" fill="#8F95B2"/>
</svg>
