<svg width="64" height="64" viewBox="0 0 64 64" fill="none" xmlns="http://www.w3.org/2000/svg">
<rect width="64" height="64" rx="32" fill="#3C68FF" fill-opacity="0.1"/>
<path d="M41.9647 30.7672L37.7459 34.4075L39.0313 39.8516C39.1022 40.1471 39.0839 40.457 38.9788 40.7422C38.8736 41.0274 38.6864 41.275 38.4406 41.4537C38.1948 41.6325 37.9015 41.7344 37.5979 41.7466C37.2942 41.7588 36.9937 41.6807 36.7344 41.5222L32 38.6085L27.2628 41.5222C27.0035 41.6798 26.7034 41.7571 26.4003 41.7445C26.0971 41.7319 25.8045 41.6298 25.5592 41.4512C25.3139 41.2726 25.127 41.0254 25.0219 40.7407C24.9168 40.4561 24.8983 40.1467 24.9688 39.8516L26.2588 34.4075L22.04 30.7672C21.8106 30.5689 21.6447 30.3075 21.563 30.0155C21.4813 29.7235 21.4874 29.4139 21.5806 29.1253C21.6739 28.8368 21.85 28.5821 22.0871 28.3931C22.3242 28.2041 22.6117 28.0891 22.9138 28.0625L28.445 27.6163L30.5788 22.4525C30.6942 22.1711 30.8908 21.9304 31.1435 21.761C31.3961 21.5916 31.6935 21.5011 31.9977 21.5011C32.3019 21.5011 32.5992 21.5916 32.8518 21.761C33.1045 21.9304 33.3011 22.1711 33.4166 22.4525L35.5494 27.6163L41.0806 28.0625C41.3833 28.0881 41.6716 28.2025 41.9096 28.3912C42.1475 28.58 42.3245 28.8348 42.4183 29.1236C42.5121 29.4125 42.5185 29.7227 42.4368 30.0152C42.3552 30.3077 42.189 30.5697 41.9591 30.7682L41.9647 30.7672Z" fill="#3C68FF"/>
</svg>
